<svg version="1.1" id="Layer_1" xmlns="http://www.w3.org/2000/svg" xmlns:xlink="http://www.w3.org/1999/xlink" x="0px" y="0px"
	  viewBox="68 432 553 201"  xml:space="preserve">
<path fill="#2563eb" opacity="1.000000" stroke="none" 
	d="
M173.392578,543.498596 
	C162.527206,528.933777 167.035263,508.181976 176.545547,497.930145 
	C178.988358,495.296875 181.131989,493.744171 184.303421,497.173218 
	C185.691406,498.674011 187.881592,499.705109 189.898560,500.285095 
	C192.608017,501.064209 194.541000,502.466553 196.342346,504.610016 
	C201.119766,510.294952 208.106003,510.547852 212.583298,504.666077 
	C216.093231,500.055084 221.332443,499.499512 225.872833,497.376892 
	C228.327454,496.229340 230.622650,498.415100 232.503357,500.007721 
	C240.287491,506.599487 242.672623,515.446289 242.148071,525.141479 
	C241.266953,541.427002 230.197647,555.088684 215.017593,559.179626 
	C198.555573,563.616089 183.135635,557.889343 173.392578,543.498596 
M229.104324,514.561340 
	C230.699234,517.960754 232.294144,521.360229 234.231033,525.488525 
	C235.850098,519.370850 234.583817,514.650513 232.114090,510.234436 
	C230.909790,508.081024 229.374207,504.470642 226.494614,506.353607 
	C223.674835,508.197510 226.936447,510.607544 227.962555,512.658203 
	C228.183212,513.099121 228.475250,513.504456 229.104324,514.561340 
z"/>
<path fill="#111827" opacity="1.000000" stroke="none" 
	d="
M255.034134,549.868408 
	C246.520920,536.108704 245.576523,522.264709 253.834198,508.614838 
	C262.369049,494.506836 279.374634,491.553741 292.781586,501.240570 
	C293.543976,501.791412 294.096985,502.828125 296.051422,502.301147 
	C296.051422,494.423798 296.052887,486.343018 296.050323,478.262238 
	C296.049744,476.431763 296.030975,474.601318 296.027802,472.770844 
	C296.015015,465.454041 296.041321,465.794342 302.821747,465.291809 
	C307.569885,464.939850 308.422638,466.908752 308.408875,471.010620 
	C308.317169,498.301178 308.395691,525.592285 308.398529,552.883240 
	C308.398834,555.644043 309.068695,559.006348 304.666321,558.978943 
	C301.087097,558.956604 296.529053,560.542297 295.946259,554.506714 
	C295.905701,554.086731 295.501892,553.701843 294.972321,552.797241 
	C287.568390,559.342773 279.145844,561.672668 269.535187,559.523315 
	C263.530762,558.180542 258.981201,554.855042 255.034134,549.868408 
M289.208191,503.187958 
	C278.376465,497.683472 269.134552,500.635895 264.188629,511.656738 
	C258.798248,523.667908 259.918640,535.693054 265.769775,547.207764 
	C268.508240,552.596985 273.422089,555.727966 279.600311,555.438599 
	C286.508118,555.114929 291.777344,551.363220 295.748047,545.838684 
	C296.250763,545.139343 296.177734,543.939819 296.170135,542.973511 
	C296.098206,533.830383 295.644714,524.674255 296.006134,515.549744 
	C296.223419,510.063995 294.587006,506.184540 289.208191,503.187958 
z"/>
<path fill="#111827" opacity="1.000000" stroke="none" 
	d="
M323.737244,546.965393 
	C323.725891,521.662231 323.705627,496.853607 323.712433,472.045013 
	C323.713959,466.400421 329.582397,463.213715 334.605804,466.090485 
	C336.613708,467.240387 336.157043,469.250763 336.165192,471.005341 
	C336.212189,481.139038 336.188110,491.273041 336.188110,501.265869 
	C338.160583,502.138092 339.002930,500.769714 340.043274,500.119171 
	C358.347382,488.672821 379.502655,499.822388 383.022980,520.812439 
	C385.085419,533.109985 382.131165,544.681885 372.256531,553.545410 
	C363.232208,561.645691 349.700623,562.729309 340.058746,555.638184 
	C337.163025,553.508484 335.017822,553.464050 332.021942,555.177734 
	C324.043610,559.741577 323.759674,559.500122 323.741516,550.456970 
	C323.739502,549.457947 323.739227,548.458984 323.737244,546.965393 
M336.444214,509.516876 
	C336.361023,520.310303 336.428650,531.108032 336.122833,541.895203 
	C335.994720,546.414062 337.906067,549.506348 341.271149,552.034790 
	C349.548309,558.253967 359.461700,556.416260 365.478699,547.567505 
	C372.634583,537.043823 372.704681,519.329407 365.632294,508.742676 
	C358.147858,497.539124 344.381073,497.547607 336.444214,509.516876 
z"/>
<path fill="#111827" opacity="1.000000" stroke="none" 
	d="
M149.617249,551.538147 
	C148.726013,549.153503 147.996307,548.197144 145.681763,550.096741 
	C122.139763,569.419128 89.097351,558.556030 80.186394,528.647888 
	C73.144104,505.011505 84.555611,479.807159 106.508614,470.510590 
	C124.837723,462.748657 145.807068,469.218323 154.360931,485.237549 
	C155.475647,487.325165 156.183624,489.504242 156.598190,491.817841 
	C156.995514,494.035309 157.468735,496.556824 154.540665,497.046631 
	C151.879944,497.491699 148.504379,498.615784 147.104492,494.738037 
	C148.080688,492.430298 150.604492,493.370850 152.201309,491.514069 
	C151.630661,484.000488 146.189865,479.422394 140.393539,475.706207 
	C126.003304,466.480164 109.223610,470.325287 99.757347,484.509308 
	C87.801071,502.424316 88.644775,528.914307 101.682144,544.942505 
	C112.421333,558.145325 128.099182,560.335022 139.848709,550.277344 
	C144.393036,546.387329 147.181900,541.651001 146.672745,535.478088 
	C146.268616,530.578613 148.888687,524.346985 145.302094,521.123291 
	C142.050919,518.201111 136.028091,520.402161 131.235367,520.152283 
	C129.241791,520.048340 127.235924,520.118164 125.250565,519.941406 
	C124.028923,519.832642 122.922310,519.215210 123.096931,517.731812 
	C123.236244,516.548340 124.304489,516.106262 125.306984,516.108093 
	C135.292755,516.126282 145.279465,516.143860 155.263504,516.308105 
	C158.284668,516.357788 158.336212,518.749146 158.337631,521.021667 
	C158.344498,532.011719 158.398224,543.001831 158.371384,553.991760 
	C158.367126,555.730225 158.906662,557.987244 156.523392,558.628235 
	C154.235519,559.243530 152.782379,557.767090 151.776581,555.856812 
	C151.079391,554.532715 150.411209,553.193298 149.617249,551.538147 
z"/>
<path fill="#111827" opacity="1.000000" stroke="none" 
	d="
M402.493958,501.422363 
	C421.352539,488.034485 444.976410,498.225677 448.106171,520.692322 
	C448.663696,524.694641 447.602234,526.470642 443.189850,526.442322 
	C431.202362,526.365417 419.211212,526.814880 407.224426,526.712585 
	C403.771027,526.683167 402.968689,527.698853 403.117737,530.966431 
	C403.841278,546.828369 417.819977,557.593933 431.700043,552.823242 
	C436.675140,551.113342 440.222595,547.807617 442.801361,543.287109 
	C443.650635,541.798340 443.877167,539.675842 446.523407,539.226929 
	C448.049744,541.533020 446.730682,543.594971 445.737793,545.514404 
	C440.374908,555.882263 428.664185,561.604675 415.830994,560.234253 
	C405.721252,559.154663 394.371857,549.477173 391.696167,539.466064 
	C387.783569,524.826904 391.183472,512.163086 402.493958,501.422363 
M418.684052,499.009338 
	C410.618103,500.652954 402.625824,511.643799 403.280243,519.944031 
	C403.484131,522.530090 405.013519,522.874268 406.988068,522.880371 
	C415.318695,522.906189 423.649384,522.918762 431.980072,522.916992 
	C433.968750,522.916565 435.459259,522.505371 435.714935,519.968384 
	C436.629517,510.893341 428.315399,500.008148 418.684052,499.009338 
z"/>
<path fill="#111827" opacity="1.000000" stroke="none" 
	d="
M557.644714,585.699097 
	C557.067627,581.388367 558.599548,579.708679 562.639648,579.134888 
	C572.096680,577.791870 578.873108,570.885254 580.581848,561.669495 
	C581.007874,559.372192 580.069458,557.426331 579.184998,555.450928 
	C571.159119,537.523376 563.125366,519.599243 555.107178,501.668213 
	C554.512268,500.337830 553.400757,499.151337 553.870544,497.181702 
	C557.435181,495.745453 561.253540,496.700958 564.981079,496.749512 
	C567.332397,496.780151 567.553589,499.062653 568.250854,500.671661 
	C573.743469,513.346741 579.191040,526.041382 584.678101,538.718872 
	C585.264893,540.074646 586.016052,541.359253 586.903076,543.090881 
	C588.823792,541.383423 589.376465,539.275879 590.152466,537.393494 
	C595.100586,525.389893 599.968750,513.353271 604.858459,501.325562 
	C605.171936,500.554504 605.415955,499.754578 605.743469,498.989990 
	C606.411194,497.430786 607.225220,495.517792 609.238525,496.300049 
	C611.526672,497.189240 610.230286,499.127472 609.630981,500.564728 
	C603.993042,514.086670 598.486389,527.667969 592.566223,541.066162 
	C588.589600,550.065857 585.203857,559.265137 581.903931,568.513000 
	C579.749939,574.549561 576.603271,580.011719 572.062500,584.569763 
	C569.023499,587.620361 565.374329,589.425354 560.932251,589.437683 
	C558.605774,589.444153 557.542480,588.429810 557.644714,585.699097 
z"/>
<path fill="#111827" opacity="1.000000" stroke="none" 
	d="
M549.813843,498.478149 
	C550.682739,502.179016 551.948486,505.546021 549.925720,508.772400 
	C547.791748,509.001007 547.680237,507.376862 547.128784,506.269043 
	C544.044373,500.073212 539.366089,497.844940 532.795349,499.485107 
	C525.034058,501.422424 521.156494,506.384094 521.160156,514.400818 
	C521.165955,527.222717 521.048218,540.046875 521.266418,552.865295 
	C521.341858,557.299438 519.980103,559.228027 515.319641,559.183105 
	C510.911499,559.140564 508.584473,558.176819 508.664734,553.048157 
	C508.917450,536.899353 508.699097,520.743713 508.833771,504.592133 
	C508.853516,502.226593 507.311462,498.454102 511.118011,497.942596 
	C514.744873,497.455261 519.226990,495.945007 521.783691,500.881409 
	C530.624634,495.383820 539.659912,491.781982 549.813843,498.478149 
z"/>
<path fill="#111827" opacity="1.000000" stroke="none" 
	d="
M501.097321,502.093567 
	C500.949554,504.396454 501.875458,506.505615 500.102081,508.079224 
	C497.666168,508.324677 497.581421,506.170593 496.733093,504.921875 
	C493.018341,499.454010 487.981995,497.720306 481.456116,499.768127 
	C474.247803,502.030090 471.368042,505.716858 471.363739,512.625366 
	C471.355194,526.284668 471.138336,539.947815 471.409729,553.601318 
	C471.513580,558.828247 468.727875,559.031921 464.827576,559.180725 
	C460.681152,559.338989 458.763214,558.227661 458.823700,553.644470 
	C459.036957,537.489197 458.915680,521.329590 458.952362,505.171783 
	C458.968353,498.124054 464.617828,494.709656 470.571014,498.617676 
	C472.806915,500.085449 473.894989,499.720795 475.731140,498.708954 
	C482.270050,495.105560 489.108154,493.964874 496.440552,496.136902 
	C499.402557,497.014343 501.113007,498.501740 501.097321,502.093567 
z"/>
<path fill="#f59e0b" opacity="1.000000" stroke="none" 
	d="
M221.036713,442.744476 
	C227.223145,443.626648 233.078857,443.953705 238.488876,446.305298 
	C240.907272,447.356506 244.018341,448.417236 243.791641,451.518951 
	C243.573166,454.508087 240.471954,455.423096 237.931381,456.188995 
	C223.867111,460.429016 209.425415,460.427185 194.960510,459.695587 
	C188.508331,459.369263 182.000549,459.219421 175.718567,457.359802 
	C174.287064,456.936066 172.784592,456.685303 171.425293,456.098816 
	C168.869690,454.996124 165.694504,454.126373 165.866089,450.575256 
	C166.028214,447.220001 169.199112,446.592865 171.654495,445.963257 
	C186.255325,442.219238 201.127640,441.410675 216.124420,442.300110 
	C217.614380,442.388489 219.098312,442.578125 221.036713,442.744476 
M197.785324,454.656403 
	C209.585281,454.860718 221.362061,454.849030 233.867630,451.500000 
	C223.272614,446.058990 185.455002,446.259613 177.059769,451.424500 
	C183.663498,453.670074 190.320267,453.783386 197.785324,454.656403 
z"/>
<path fill="#2563eb" opacity="1.000000" stroke="none" 
	d="
M207.060394,474.647217 
	C209.210846,475.379730 210.741898,476.443665 211.732376,478.015015 
	C213.516190,480.845001 215.866730,482.484070 219.209686,483.262421 
	C222.145889,483.946075 225.032135,485.591034 225.144440,489.152283 
	C225.265182,492.981140 222.863907,495.555389 219.351318,496.322662 
	C215.187622,497.232147 212.476151,499.391998 209.907578,502.761322 
	C206.396988,507.366302 202.280731,507.091888 198.802475,502.318390 
	C196.882431,499.683350 194.703476,498.249908 191.597458,497.597809 
	C189.871628,497.235474 188.091614,496.354248 186.726227,495.232056 
	C184.622787,493.503387 183.083527,491.179504 183.754715,488.249054 
	C184.460205,485.168762 186.752304,483.118195 189.714722,482.980133 
	C193.708572,482.794037 196.001801,480.975128 198.031326,477.740845 
	C199.925156,474.722748 202.960388,473.321594 207.060394,474.647217 
M199.193146,491.711975 
	C203.281067,486.420502 207.444550,489.390259 211.501892,492.022186 
	C211.900421,491.209717 212.388000,490.686432 212.279175,490.365295 
	C211.099823,486.886353 208.032516,486.492065 205.050537,486.328369 
	C202.054718,486.163879 198.882843,486.193817 197.294693,489.462585 
	C196.633118,490.824310 195.859268,492.822205 199.193146,491.711975 
z"/>
<path fill="#2563eb" opacity="1.000000" stroke="none" 
	d="
M233.630890,480.432129 
	C227.972534,486.000336 223.715393,481.598083 219.156097,479.192017 
	C222.827576,469.583801 236.035110,467.660889 250.583969,471.445892 
	C250.776627,486.305817 239.221939,498.196350 226.903809,495.129700 
	C227.942535,489.044891 231.039978,484.227112 235.636658,480.226105 
	C234.954529,479.427643 234.455170,480.253082 233.630890,480.432129 
z"/>
<path fill="#111827" opacity="1.000000" stroke="none" 
	d="
M357.504791,604.770752 
	C361.062042,593.899536 366.518250,591.759033 380.698425,595.787354 
	C380.698425,592.355530 380.675354,589.091064 380.709198,585.827271 
	C380.723846,584.417542 381.034943,583.107666 382.820923,583.042053 
	C384.547394,582.978455 385.191620,584.121887 385.204926,585.597046 
	C385.305267,596.726868 385.372925,607.857056 385.410706,618.987305 
	C385.415314,620.352173 385.136444,621.700500 383.429840,621.999634 
	C381.477386,622.341919 380.990509,620.715576 380.016205,619.189209 
	C374.482788,623.173706 368.630951,623.913391 362.998901,619.694580 
	C358.222656,616.116760 356.499176,611.073120 357.504791,604.770752 
M364.159088,614.213623 
	C369.163574,618.715576 375.179077,618.801392 378.546204,614.418945 
	C382.059265,609.846497 381.277344,602.848877 376.677032,599.764038 
	C373.034790,597.321655 369.142548,597.157715 365.595734,600.039917 
	C361.614136,603.275330 361.063538,607.806152 364.159088,614.213623 
z"/>
<path fill="#111827" opacity="1.000000" stroke="none" 
	d="
M247.875900,588.112915 
	C247.434891,591.816528 245.189392,590.597046 243.397903,590.057434 
	C239.984283,589.029114 236.555344,588.532837 233.078461,589.458923 
	C230.485214,590.149536 228.555679,591.696289 228.400253,594.607727 
	C228.250809,597.407532 230.151642,598.851746 232.450455,599.647888 
	C235.903320,600.843811 239.494400,601.646423 242.930466,602.883545 
	C247.090134,604.381226 250.264618,606.933594 250.294678,611.853943 
	C250.325302,616.864197 247.454025,619.635071 243.016403,621.439941 
	C237.105667,623.843994 231.592422,622.737305 226.208359,620.057190 
	C224.510620,619.212158 222.112900,618.177246 223.454620,615.642029 
	C224.771011,613.154663 226.547379,615.059326 228.117508,615.753235 
	C232.165558,617.542114 236.318176,618.404358 240.721832,617.187500 
	C243.189774,616.505493 245.019577,615.016602 245.340820,612.500671 
	C245.698288,609.701111 243.543015,608.345947 241.293304,607.505798 
	C238.652588,606.519592 235.882477,605.885315 233.216949,604.958923 
	C225.602753,602.312744 222.583023,598.848999 223.321457,593.756714 
	C224.141357,588.102722 229.407257,584.087646 236.677429,584.112549 
	C240.647141,584.126099 244.637711,584.817627 247.875900,588.112915 
z"/>
<path fill="#111827" opacity="1.000000" stroke="none" 
	d="
M458.593140,621.075439 
	C451.029053,623.507507 444.810577,621.816833 440.867889,616.513855 
	C437.188354,611.564819 436.873932,604.595276 440.108185,599.672302 
	C443.390259,594.676514 450.318481,592.088806 456.352966,593.822876 
	C462.420532,595.566345 465.915314,599.883911 466.609009,605.983032 
	C467.342865,612.435120 464.868134,617.657715 458.593140,621.075439 
M443.546204,611.544922 
	C443.951691,612.266602 444.271027,613.056030 444.776642,613.698975 
	C448.055969,617.868774 452.655914,618.847168 457.138123,616.378296 
	C461.334351,614.066833 462.951477,608.796265 461.004547,603.776733 
	C459.240936,599.229858 455.135529,597.127991 450.130890,598.209656 
	C445.118561,599.292908 442.628540,603.908997 443.546204,611.544922 
z"/>
<path fill="#111827" opacity="1.000000" stroke="none" 
	d="
M331.760193,621.904541 
	C329.650787,620.164795 327.986847,620.237610 325.685669,621.252991 
	C317.524658,624.854126 310.445465,621.031067 309.200287,612.147705 
	C308.512390,607.239807 308.850159,602.183289 308.803528,597.193054 
	C308.787048,595.426086 309.175323,593.730713 311.513580,593.875549 
	C313.769501,594.015381 314.024139,595.780640 314.055817,597.489807 
	C314.132965,601.651672 314.027985,605.817749 314.147644,609.977783 
	C314.294006,615.065735 316.410492,617.419128 320.770386,617.612427 
	C325.450012,617.819885 329.398651,614.653259 329.694763,610.051514 
	C329.972351,605.737732 329.799774,601.396179 329.880981,597.067871 
	C329.910950,595.471130 330.339539,593.982666 332.319611,593.945862 
	C334.031250,593.914124 334.695038,595.259033 334.677856,596.622131 
	C334.579224,604.436646 334.376038,612.250244 334.140442,620.062073 
	C334.106659,621.183289 333.219238,621.761902 331.760193,621.904541 
z"/>
<path fill="#111827" opacity="1.000000" stroke="none" 
	d="
M286.391235,617.619629 
	C287.619476,620.717957 285.571747,621.517517 283.637970,622.019287 
	C280.133575,622.928650 277.019043,622.023071 274.702759,619.138245 
	C273.299438,617.390442 272.869354,615.264771 272.867737,613.045166 
	C272.865295,609.719666 272.848114,606.394043 272.827301,603.068604 
	C272.813782,600.911316 273.096832,598.604553 270.227081,597.853821 
	C269.922241,597.774048 269.627716,597.551147 269.392731,597.327087 
	C268.602112,596.573608 268.128723,594.948608 268.720917,594.714783 
	C272.059418,593.396667 272.340637,588.916626 275.767548,588.018372 
	C277.254761,587.628540 278.058655,589.049561 278.277222,590.515015 
	C278.706055,593.390503 281.084686,592.794006 282.934753,593.144775 
	C284.325195,593.408325 285.600311,593.915283 285.597656,595.580078 
	C285.594940,597.267761 284.257080,597.995056 282.901062,597.917358 
	C278.120544,597.643494 277.984863,600.676575 278.177185,604.111694 
	C278.260651,605.603210 278.182190,607.103821 278.176025,608.600342 
	C278.140289,617.293640 278.140167,617.293640 286.391235,617.619629 
z"/>
<path fill="#111827" opacity="1.000000" stroke="none" 
	d="
M410.777527,599.234985 
	C411.101440,596.795776 410.220825,593.802979 413.581116,594.030579 
	C416.327423,594.216553 415.914429,596.920410 415.944672,598.784119 
	C416.047150,605.099731 416.020142,611.419189 415.921356,617.735229 
	C415.893280,619.529358 415.788788,621.783630 413.250549,621.745361 
	C410.683197,621.706665 410.779266,619.501160 410.772278,617.663025 
	C410.749420,611.677368 410.769318,605.691528 410.777527,599.234985 
z"/>
<path fill="#111827" opacity="1.000000" stroke="none" 
	d="
M411.076996,584.261658 
	C413.407959,582.092896 415.350159,582.393921 416.458099,584.902954 
	C417.281769,586.768066 416.046173,588.334473 414.246490,588.620911 
	C411.292206,589.091125 410.491180,587.240967 411.076996,584.261658 
z"/>
</svg>